G04 #@! TF.GenerationSoftware,KiCad,Pcbnew,(5.1.2)-1*
G04 #@! TF.CreationDate,2026-03-03T23:35:39+09:00*
G04 #@! TF.ProjectId,SPU0410LR5H,53505530-3431-4304-9c52-35482e6b6963,v1.3*
G04 #@! TF.SameCoordinates,Original*
G04 #@! TF.FileFunction,Soldermask,Top*
G04 #@! TF.FilePolarity,Negative*
%FSLAX46Y46*%
G04 Gerber Fmt 4.6, Leading zero omitted, Abs format (unit mm)*
G04 Created by KiCad (PCBNEW (5.1.2)-1) date 2026-03-03 23:35:39*
%MOMM*%
%LPD*%
G04 APERTURE LIST*
%ADD10C,0.100000*%
G04 APERTURE END LIST*
D10*
G36*
X153162270Y-117589750D02*
G01*
X151713250Y-117589750D01*
X151713250Y-116110250D01*
X153162270Y-116110250D01*
X153162270Y-117589750D01*
X153162270Y-117589750D01*
G37*
G36*
X151414750Y-117589750D02*
G01*
X149965730Y-117589750D01*
X149965730Y-116110250D01*
X151414750Y-116110250D01*
X151414750Y-117589750D01*
X151414750Y-117589750D01*
G37*
G36*
X153178270Y-115769750D02*
G01*
X151729250Y-115769750D01*
X151729250Y-114290250D01*
X153178270Y-114290250D01*
X153178270Y-115769750D01*
X153178270Y-115769750D01*
G37*
G36*
X151430750Y-115769750D02*
G01*
X149981730Y-115769750D01*
X149981730Y-114290250D01*
X151430750Y-114290250D01*
X151430750Y-115769750D01*
X151430750Y-115769750D01*
G37*
G36*
X148072270Y-115729750D02*
G01*
X146623250Y-115729750D01*
X146623250Y-114250250D01*
X148072270Y-114250250D01*
X148072270Y-115729750D01*
X148072270Y-115729750D01*
G37*
G36*
X146324750Y-115729750D02*
G01*
X144875730Y-115729750D01*
X144875730Y-114250250D01*
X146324750Y-114250250D01*
X146324750Y-115729750D01*
X146324750Y-115729750D01*
G37*
G36*
X142870583Y-113011919D02*
G01*
X143051925Y-113066929D01*
X143219043Y-113156256D01*
X143365528Y-113276472D01*
X143485744Y-113422957D01*
X143575071Y-113590075D01*
X143630081Y-113771417D01*
X143648654Y-113960000D01*
X143630081Y-114148583D01*
X143575071Y-114329925D01*
X143485744Y-114497043D01*
X143365528Y-114643528D01*
X143219043Y-114763744D01*
X143051925Y-114853071D01*
X142870583Y-114908081D01*
X142729257Y-114922000D01*
X141110743Y-114922000D01*
X140969417Y-114908081D01*
X140788075Y-114853071D01*
X140620957Y-114763744D01*
X140474472Y-114643528D01*
X140354256Y-114497043D01*
X140264929Y-114329925D01*
X140209919Y-114148583D01*
X140191346Y-113960000D01*
X140209919Y-113771417D01*
X140264929Y-113590075D01*
X140354256Y-113422957D01*
X140474472Y-113276472D01*
X140620957Y-113156256D01*
X140788075Y-113066929D01*
X140969417Y-113011919D01*
X141110743Y-112998000D01*
X142729257Y-112998000D01*
X142870583Y-113011919D01*
X142870583Y-113011919D01*
G37*
G36*
X155700000Y-113860000D02*
G01*
X153500000Y-113860000D01*
X153500000Y-111860000D01*
X155700000Y-111860000D01*
X155700000Y-113860000D01*
X155700000Y-113860000D01*
G37*
G36*
X146250000Y-113785000D02*
G01*
X145450000Y-113785000D01*
X145450000Y-112635000D01*
X146250000Y-112635000D01*
X146250000Y-113785000D01*
X146250000Y-113785000D01*
G37*
G36*
X147550000Y-113785000D02*
G01*
X146750000Y-113785000D01*
X146750000Y-112635000D01*
X147550000Y-112635000D01*
X147550000Y-113785000D01*
X147550000Y-113785000D01*
G37*
G36*
X142870583Y-110471919D02*
G01*
X143051925Y-110526929D01*
X143219043Y-110616256D01*
X143365528Y-110736472D01*
X143485744Y-110882957D01*
X143575071Y-111050075D01*
X143630081Y-111231417D01*
X143648654Y-111420000D01*
X143630081Y-111608583D01*
X143575071Y-111789925D01*
X143485744Y-111957043D01*
X143365528Y-112103528D01*
X143219043Y-112223744D01*
X143051925Y-112313071D01*
X142870583Y-112368081D01*
X142729257Y-112382000D01*
X141110743Y-112382000D01*
X140969417Y-112368081D01*
X140788075Y-112313071D01*
X140620957Y-112223744D01*
X140474472Y-112103528D01*
X140354256Y-111957043D01*
X140264929Y-111789925D01*
X140209919Y-111608583D01*
X140191346Y-111420000D01*
X140209919Y-111231417D01*
X140264929Y-111050075D01*
X140354256Y-110882957D01*
X140474472Y-110736472D01*
X140620957Y-110616256D01*
X140788075Y-110526929D01*
X140969417Y-110471919D01*
X141110743Y-110458000D01*
X142729257Y-110458000D01*
X142870583Y-110471919D01*
X142870583Y-110471919D01*
G37*
G36*
X151760000Y-112310000D02*
G01*
X151195000Y-112310000D01*
X151195000Y-111640000D01*
X151760000Y-111640000D01*
X151760000Y-112310000D01*
X151760000Y-112310000D01*
G37*
G36*
X150214390Y-110793245D02*
G01*
X150348151Y-110848651D01*
X150348153Y-110848652D01*
X150468535Y-110929088D01*
X150570912Y-111031465D01*
X150589978Y-111060000D01*
X150651349Y-111151849D01*
X150706755Y-111285610D01*
X150735000Y-111427608D01*
X150735000Y-111572392D01*
X150706755Y-111714390D01*
X150675468Y-111789922D01*
X150651348Y-111848153D01*
X150570912Y-111968535D01*
X150468535Y-112070912D01*
X150348153Y-112151348D01*
X150348152Y-112151349D01*
X150348151Y-112151349D01*
X150214390Y-112206755D01*
X150072392Y-112235000D01*
X149927608Y-112235000D01*
X149785610Y-112206755D01*
X149651849Y-112151349D01*
X149651848Y-112151349D01*
X149651847Y-112151348D01*
X149531465Y-112070912D01*
X149429088Y-111968535D01*
X149348652Y-111848153D01*
X149324532Y-111789922D01*
X149293245Y-111714390D01*
X149265000Y-111572392D01*
X149265000Y-111427608D01*
X149293245Y-111285610D01*
X149348651Y-111151849D01*
X149410022Y-111060000D01*
X149429088Y-111031465D01*
X149531465Y-110929088D01*
X149651847Y-110848652D01*
X149651849Y-110848651D01*
X149785610Y-110793245D01*
X149927608Y-110765000D01*
X150072392Y-110765000D01*
X150214390Y-110793245D01*
X150214390Y-110793245D01*
G37*
G36*
X147550000Y-111885000D02*
G01*
X145450000Y-111885000D01*
X145450000Y-110735000D01*
X147550000Y-110735000D01*
X147550000Y-111885000D01*
X147550000Y-111885000D01*
G37*
G36*
X151760000Y-111360000D02*
G01*
X151195000Y-111360000D01*
X151195000Y-110690000D01*
X151760000Y-110690000D01*
X151760000Y-111360000D01*
X151760000Y-111360000D01*
G37*
G36*
X155700000Y-111060000D02*
G01*
X153500000Y-111060000D01*
X153500000Y-109060000D01*
X155700000Y-109060000D01*
X155700000Y-111060000D01*
X155700000Y-111060000D01*
G37*
G36*
X148104270Y-110269750D02*
G01*
X146655250Y-110269750D01*
X146655250Y-108790250D01*
X148104270Y-108790250D01*
X148104270Y-110269750D01*
X148104270Y-110269750D01*
G37*
G36*
X146356750Y-110269750D02*
G01*
X144907730Y-110269750D01*
X144907730Y-108790250D01*
X146356750Y-108790250D01*
X146356750Y-110269750D01*
X146356750Y-110269750D01*
G37*
G36*
X143644000Y-109842000D02*
G01*
X140196000Y-109842000D01*
X140196000Y-107918000D01*
X143644000Y-107918000D01*
X143644000Y-109842000D01*
X143644000Y-109842000D01*
G37*
G36*
X153162270Y-108729750D02*
G01*
X151713250Y-108729750D01*
X151713250Y-107250250D01*
X153162270Y-107250250D01*
X153162270Y-108729750D01*
X153162270Y-108729750D01*
G37*
G36*
X151414750Y-108729750D02*
G01*
X149965730Y-108729750D01*
X149965730Y-107250250D01*
X151414750Y-107250250D01*
X151414750Y-108729750D01*
X151414750Y-108729750D01*
G37*
G36*
X149699550Y-108437050D02*
G01*
X147900010Y-108437050D01*
X147900010Y-106739110D01*
X149699550Y-106739110D01*
X149699550Y-108437050D01*
X149699550Y-108437050D01*
G37*
G36*
X145900980Y-107789350D02*
G01*
X144002380Y-107789350D01*
X144002380Y-105090650D01*
X145900980Y-105090650D01*
X145900980Y-107789350D01*
X145900980Y-107789350D01*
G37*
G36*
X151416750Y-106859750D02*
G01*
X149967730Y-106859750D01*
X149967730Y-105380250D01*
X151416750Y-105380250D01*
X151416750Y-106859750D01*
X151416750Y-106859750D01*
G37*
G36*
X153164270Y-106859750D02*
G01*
X151715250Y-106859750D01*
X151715250Y-105380250D01*
X153164270Y-105380250D01*
X153164270Y-106859750D01*
X153164270Y-106859750D01*
G37*
G36*
X149699550Y-106140890D02*
G01*
X147900010Y-106140890D01*
X147900010Y-104442950D01*
X149699550Y-104442950D01*
X149699550Y-106140890D01*
X149699550Y-106140890D01*
G37*
M02*
